<?xml version="1.0" encoding="utf-8"?>
<svg version="1.1" xmlns:xlink="http://www.w3.org/1999/xlink" width="15px" height="20px" xmlns="http://www.w3.org/2000/svg">
  <g transform="matrix(1 0 0 1 -584 -581 )">
    <path d="M 14.9999953190252 8.46213491858362  C 15.0025472066263 7.16205737916778  13.9613770653942 6.11010597053507  12.6828813772636 6.11010597053507  L 9.15617271259998 6.11010597053507  C 7.87767702446934 6.11010597053507  6.83905877083828 7.16464202636337  6.83905877083828 8.45696562419232  L 6.83905877083828 9.90695270095637  C 6.83905877083828 10.2558800723701  6.91561539887005 10.5996381493926  7.06362487973149 10.9149651072629  C 6.96154937568917 11.0958904109589  6.81609178242877 11.284569656242  6.61449266194506 11.3827862496769  L 6.61194077434402 11.3853708968726  C 6.41289354146147 11.4861721375032  6.30316237461591 11.7032825019385  6.3363369134297 11.9281468079607  C 6.37206333984454 12.1504264667873  6.5430398091155 12.3235978288964  6.75995025520547 12.3571982424399  C 6.89009652285949 12.3778754200051  7.02024279051352 12.3882140087878  7.15038905816755 12.3882140087878  C 7.56124296193798 12.3882140087878  7.94147421449588 12.2848281209615  8.28087526543663 12.0832256397002  C 8.55903101395211 12.1995347635047  8.855049975675 12.2563970018092  9.15617271259998 12.2589816490049  L 12.6828813772636 12.2589816490049  C 13.9613770653942 12.2589816490049  14.9999953190252 11.2044455931765  14.9999953190252 9.91212199534766  L 14.9999953190252 8.46213491858362  Z M 14.0991789958514 8.4957353321272  L 14.0966271082503 9.87593693460838  C 14.0966271082503 10.7107779788059  13.4254806691717 11.3905401912639  12.6012209740297 11.3905401912639  L 9.23272934063175 11.3905401912639  C 8.98519624332903 11.3905401912639  8.75297447163257 11.3310933057637  8.5360640255426 11.2147841819592  C 8.41357342069171 11.1501680020677  8.26811582743142 11.1605065908503  8.15583277298481 11.2432153011114  C 8.00782329212336 11.351770483329  7.8470543732567 11.4293098991988  7.67607790398574 11.4732489015249  C 7.80367228403861 11.3078314810028  7.8980921252778 11.1346601188937  7.96699309050643 10.9873352287412  C 8.01547895492649 10.8787800465236  8.00782329212336 10.7521323339364  7.94912987729901 10.6513310933058  C 7.81132794684186 10.4187128456965  7.73987509401218 10.1524941845438  7.73987509401218 9.88110622899978  L 7.73987509401218 8.4957353321272  C 7.73987509401218 7.66089428792975  6.85181820884361 10.6513310933058  7.67607790398574 10.6513310933058  L 12.6037728616308 6.98113207547169  C 13.4280325567728 6.98113207547169  14.0991789958514 7.66089428792975  14.0991789958514 8.4957353321272  Z M 9.66399834521076 9.16515895580255  C 9.66399834521076 8.82915482036697  9.39605014709946 8.55776686482295  9.06430475896184 8.55776686482295  C 8.96478114252056 8.55776686482295  8.86525752607918 8.58361333677954  8.77849334764323 8.632721633497  C 8.61006876597332 8.72576893254075  8.49013004872359 8.89635564745413  8.46716306031396 9.0953734815198  L 8.46716306031396 9.2401137244766  C 8.49013004872359 9.44171620573786  8.61006876597332 9.61230292065136  8.77849334764323 9.7027655724994  C 8.86270563847813 9.74928922202116  8.96222925491941 9.77772034117345  9.06430475896184 9.77772034117345  C 9.39605014709946 9.77772034117345  9.66399834521076 9.50374773843373  9.66399834521076 9.16515895580255  Z M 11.5115649683775 9.20909795812872  C 11.5141168559785 8.87309382269325  11.2461686578673 8.60170586714912  10.9118713821285 8.60170586714912  C 10.5801259939909 8.60170586714912  10.3121777958797 8.87309382269325  10.3121777958797 9.20909795812872  C 10.3121777958797 9.5451020935642  10.5801259939909 9.81649004910832  10.9118713821285 9.81649004910832  C 11.2436167702663 9.81649004910832  11.5115649683775 9.54251744636861  11.5115649683775 9.20909795812872  Z M 13.3616834791453 9.24528301886789  C 13.3616834791453 8.90927888343242  13.0937352810341 8.63789092788829  12.7619898928964 8.63789092788829  C 12.7211596912795 8.63789092788829  12.6803294896625 8.6430602222797  12.6420511756467 8.65081416386658  C 12.6037728616308 8.65856810545358  12.5654945476149 8.67149134143187  12.5297681212 8.68699922460587  C 12.31285767511 8.7800465236495  12.1622963066476 8.99715688808476  12.1622963066476 9.2478676660636  C 12.1622963066476 9.49340914965103  12.3077538999079 9.71310416128199  12.5297681212 9.80873610752133  C 12.5654945476149 9.82424399069532  12.6037728616308 9.83716722667361  12.6420511756467 9.8449211682605  C 12.6803294896625 9.8526751098475  12.7211596912795 9.85784440423879  12.7619898928964 9.85784440423879  C 13.0937352810341 9.85784440423879  13.3642353667464 9.58387180149907  13.3616834791453 9.24528301886789  Z M 11.9606971861639 13.858878263117  C 11.9581452985628 13.5513052468339  11.7131640888612 13.300594468855  11.4069375767341 13.300594468855  C 11.1032629522081 13.300594468855  10.8557298549053 13.5513052468339  10.8557298549053 13.858878263117  L 10.8557298549053 14.6885500129232  L 1.10241544365749 14.6885500129232  L 1.10241544365749 5  L 11.4094894643351 5  C 11.7131640888612 4.88239855259758  11.9606971861639 4.63168777461874  11.9606971861639 4.32411475833544  L 11.9606971861639 2.58981649004909  C 11.9606971861639 1.16309123804604  10.8148996532883 0  9.4037058099027 0  L 2.55699137626118 0  C 1.14834942047662 0  0 1.16050659085033  0 2.58981649004909  L 0 17.4101835099509  C 0 18.836908761954  1.14579753287558 20  2.55699137626118 20  L 9.4037058099027 20  C 10.8123477656873 20  11.9606971861639 18.8394934091497  11.9606971861639 17.4101835099509  L 11.9606971861639 13.858878263117  Z M 1.10241544365749 3.76583096407342  L 1.10241544365749 2.58981649004909  C 1.10241544365749 1.77823727061252  1.75569866952867 1.11656758852416  2.55699137626118 1.11656758852416  L 9.4037058099027 1.11656758852416  C 10.2049985166352 1.11656758852416  10.8582817425064 1.77823727061252  10.8582817425064 2.58981649004909  L 10.8582817425064 3.76583096407342  L 1.10241544365749 3.76583096407342  Z M 10.8557298549053 17.4101835099509  C 10.8557298549053 18.2217627293875  10.2049985166352 18.8834324114758  9.4037058099027 18.8834324114758  L 2.55699137626118 18.8834324114758  C 1.75569866952867 18.8834324114758  1.10241544365749 18.2217627293875  1.10241544365749 17.4101835099509  L 1.10241544365749 15.8077022486431  L 10.8557298549053 15.8077022486431  L 10.8557298549053 17.4101835099509  Z M 6.91051162366796 17.3843370379943  C 6.913063511269 16.8648229516671  6.49455394469533 16.4409408115793  5.97907264928142 16.4409408115793  C 5.46359135386751 16.4409408115793  5.04763367489488 16.8622383044715  5.04763367489488 17.3843370379943  C 5.04763367489488 17.9064357715172  5.46359135386751 18.3277332644094  5.97907264928142 18.3277332644094  C 6.49200205709428 18.3277332644094  6.91051162366796 17.9064357715172  6.91051162366796 17.3843370379943  Z " fill-rule="nonzero" fill="#1abc9c" stroke="none" transform="matrix(1 0 0 1 584 581 )" />
  </g>
</svg>